<svg width="24" height="24" viewBox="0 0 24 24" fill="none" xmlns="http://www.w3.org/2000/svg">
<g id="waving-hand (1) 1" clip-path="url(#clip0_208_7148)">
<g id="g2541">
<g id="g2543">
<g id="Clip path group">
<mask id="mask0_208_7148" style="mask-type:luminance" maskUnits="userSpaceOnUse" x="0" y="0" width="24" height="24">
<g id="clipPath2549">
<path id="path2547" d="M0 1.90735e-06H24V24H0V1.90735e-06Z" fill="white"/>
</g>
</mask>
<g mask="url(#mask0_208_7148)">
<g id="g2545">
<g id="g2551">
<path id="path2553" d="M23.0932 16.8019V8.3583C23.0932 7.25196 22.1963 6.35505 21.09 6.35505C19.9836 6.35505 19.0867 7.25196 19.0867 8.3583V10.431L13.6588 5.00318C12.9807 4.32504 11.8812 4.32504 11.2031 5.00318C10.5249 5.68137 10.5249 6.78082 11.2031 7.45901L9.9633 6.21931C9.28516 5.54117 8.18566 5.54117 7.50748 6.21931C6.82934 6.89745 6.82934 7.99695 7.50748 8.67509L8.22523 9.39284C7.54708 8.7147 6.44759 8.7147 5.7694 9.39284C5.09126 10.071 5.09126 11.1705 5.7694 11.8487L7.54062 13.6199C6.86243 12.9417 5.76293 12.9417 5.08479 13.6199H5.08474C4.40665 14.298 4.40665 15.3976 5.08474 16.0757L10.5524 21.5434C13.3592 24.3501 17.9099 24.3501 20.7167 21.5434L21.4211 20.8389C22.5358 19.7242 23.0932 18.2632 23.0932 16.8022V16.8019Z" fill="#F9EF80"/>
</g>
<g id="g2555">
<path id="path2557" d="M7.7957 13.875L7.54065 13.62L6.90925 13.217C6.29439 12.9926 5.57814 13.1266 5.08482 13.62C4.40668 14.2981 4.40664 15.3976 5.08478 16.0758C5.08478 16.0758 7.25907 18.25 8.46118 19.4521C7.36253 17.5498 7.14142 15.1896 7.7957 13.875Z" fill="#F9D171"/>
</g>
<g id="g2559">
<path id="path2561" d="M5.77032 11.8484L6.72128 12.7993C6.55079 12.2715 6.13436 10.1511 6.86823 8.88929C6.46811 8.91915 6.07628 9.08658 5.77032 9.39254C5.09218 10.0707 5.09218 11.1702 5.77032 11.8484Z" fill="#F9D171"/>
</g>
<g id="g2563">
<path id="path2565" d="M23.0932 8.90393V8.3583C23.0932 7.25196 22.1963 6.3551 21.09 6.3551C19.9836 6.3551 19.0867 7.25196 19.0867 8.3583V10.431L13.6588 5.00318C12.9807 4.32504 11.8812 4.32504 11.2031 5.00318V5.00322C10.5249 5.68136 10.5249 6.78086 11.2031 7.459L9.9633 6.2193C9.28516 5.54116 8.18566 5.54116 7.50748 6.2193C6.82934 6.89744 6.82934 7.99694 7.50748 8.67513L8.22523 9.39283C7.54708 8.71469 6.44759 8.71469 5.7694 9.39288C5.09126 10.071 5.09126 11.1705 5.7694 11.8487L7.54062 13.6199C6.86243 12.9417 5.76293 12.9417 5.08479 13.6199H5.08474C4.40665 14.2981 4.40665 15.3976 5.08474 16.0757L10.1501 21.1411" stroke="black" stroke-miterlimit="10" stroke-linecap="round" stroke-linejoin="round"/>
</g>
<g id="g2567">
<path id="path2569" d="M11.4199 22.2841C14.2301 24.3235 18.1838 24.0766 20.7171 21.5433L21.4215 20.8389C22.5362 19.7242 23.0935 18.2632 23.0935 16.8022V16.8019V10.5796" stroke="black" stroke-miterlimit="10" stroke-linecap="round" stroke-linejoin="round"/>
</g>
<g id="g2571">
<path id="path2573" d="M11.2031 7.45878L14.5686 10.8242" stroke="black" stroke-miterlimit="10" stroke-linecap="round" stroke-linejoin="round"/>
</g>
<g id="g2575">
<path id="path2577" d="M8.22363 9.39287L12.1506 13.3198" stroke="black" stroke-miterlimit="10" stroke-linecap="round" stroke-linejoin="round"/>
</g>
<g id="g2579">
<path id="path2581" d="M7.54102 13.6199L10.1316 16.2104" stroke="black" stroke-miterlimit="10" stroke-linecap="round" stroke-linejoin="round"/>
</g>
<g id="g2583">
<path id="path2585" d="M14.748 2.82038C15.8737 3.05072 16.7671 3.91833 17.0351 5.02979" stroke="#121212" stroke-miterlimit="10" stroke-linecap="round" stroke-linejoin="round"/>
</g>
<g id="g2587">
<path id="path2589" d="M14.9443 0.351379C17.2084 0.814692 19.0056 2.5598 19.5445 4.79541" stroke="#121212" stroke-miterlimit="10" stroke-linecap="round" stroke-linejoin="round"/>
</g>
<g id="g2591">
<path id="path2593" d="M3.375 17.5494C3.60534 18.6751 4.47295 19.5685 5.58441 19.8364" stroke="#121212" stroke-miterlimit="10" stroke-linecap="round" stroke-linejoin="round"/>
</g>
<g id="g2595">
<path id="path2597" d="M0.905273 17.7446C1.36854 20.0087 3.11365 21.8059 5.3493 22.3447" stroke="#121212" stroke-miterlimit="10" stroke-linecap="round" stroke-linejoin="round"/>
</g>
<g id="g2599">
<path id="path2601" d="M17.3503 17.4233C16.6704 15.8547 16.7835 14.0248 17.6896 12.543" stroke="black" stroke-miterlimit="10" stroke-linecap="round" stroke-linejoin="round"/>
</g>
</g>
</g>
</g>
</g>
</g>
</g>
<defs>
<clipPath id="clip0_208_7148">
<rect width="24" height="24" fill="white"/>
</clipPath>
</defs>
</svg>
